<?xml version="1.0" encoding="UTF-8"?>
<svg id="Layer_1" data-name="Layer 1" xmlns="http://www.w3.org/2000/svg" viewBox="0 0 595.28 559.06">
  <defs>
    <style>
      .cls-1 {
        stroke: #221f1f;
        stroke-miterlimit: 10;
      }

      .cls-1, .cls-2 {
        fill: #010101;
      }

      .cls-3 {
        fill: #fff;
      }

      .cls-4 {
        fill: #c12126;
      }

      .cls-5 {
        fill: #761113;
      }

      .cls-6 {
        fill: #841a1a;
      }
    </style>
  </defs>
  <g>
    <path class="cls-3" d="M182.13,47.72l92.92,36.38,71.62-.71,32.02,15.1,84.99-39,1.43,35.67-18.91,35.38,3.08,16.7,56.5,17.12-32.11,150.86-153.16,1.09-41.6-69.91-20.37-29.58c-9.13-14.56-21.56-26.77-36.28-35.63l-26-15.65c-13.06-6.82-25.67-23.11-14.11-46.14l-9.54-17.88,1.78-40.63,7.75-13.2Z"/>
    <g>
      <polygon class="cls-5" points="407.07 243.51 476.48 301.95 499.7 168.28 442.63 151.16 407.07 243.51"/>
      <polygon class="cls-4" points="403.39 252.11 447.62 259.25 459.55 187.41 447.98 149.02 403.39 252.11"/>
      <polyline class="cls-4" points="460.1 65.8 447.62 78.75 402.67 114.06 351.66 195.75 384.28 256.39 403.74 256.39 444.05 126.55 462.47 92.6"/>
      <polyline class="cls-6" points="374.14 101.54 338.82 187.51 362.01 237.49 403.39 192.18 396.25 130.54 413.58 113.44 443.7 84.81 463.67 61.27"/>
      <polyline class="cls-5" points="347.62 88.02 275.41 141.81 310.16 182.91 345.65 185.01 386.14 103.01"/>
      <polyline class="cls-4" points="189.36 55.56 174.02 94.09 253.21 122.89 283.38 163.85 330.77 143.97 355.59 90.52 266.41 83.74"/>
    </g>
    <path class="cls-2" d="M450.85,145.7l-1.68-16.21s12.14-22.17,17.98-34.96c.18-12.68-1.23-39.21-1.23-39.21,0,0-31.99,12.35-41.7,17.45-9.69,5.09-36.13,19.88-41.2,21.33-5.11,1.45-14.79-1.81-14.79-1.81,0,0-12.89-8.86-21.61-11.03-8.71-2.17-66.4-1.22-73.91-.48-7.52.73-89.64-35.85-91.81-36.32-2.18-.49-8.8,13.41-9.03,15.6-.25,2.19-3.28,38.47-.61,43.08l6.64,16.95c.23.57-.28,1.17-.88,1.04l-6.36-1.33c-.51-.11-.86.3-.97.8-1,4.52-.7,23.78,4.15,30.96,14.54,12.87,47.63,28.47,60.99,40.18,5.35,5.34,34.96,39.79,41.76,54.57,6.81,14.78,39.4,63.49,42.62,70.98,46.77.42,135.05-1.88,156.2,0,0,0,2.4-7.62,33.02-154.94M259.56,199.55c-9.53-9.36-9.24-13.37-20.56-20.56-20.91-13.7-22.89-13.31-43.38-25.3-4.99-2.89-12.06-9.64-12.53-10.63-1.55-3.25-.96-8.49-.04-11.74l37.63,17.12c1.03.47,1.81-.63,1.29-1.63,0,0-1.77-4.76-4.37-8.22s-12.19-13.6-18.54-15.48c-4.28.14-6.93,3.8-7.91,3.06-.48-.36-2.41-10.45-2.41-10.45l-1.44-7.13c-.83-3.83-1.19-5.15-2.34-12.06-.99-2.16.06-7.85.06-7.85.13-.28.39-1.22.86-2.21.33-.7,2.56-.89,3.32-.7l2.51.54c.48-.14,1.41-2.41,1.07-2.79l-5.13-5.37c-.48-.5-1.53-1.96-1.42-2.69.35-2.31,1.55-6.99,2.25-10.66.29-1.54,1.92-2.42,3.37-1.82,5.59,2.32,17.96,7.5,22.63,9.73,6.14,2.9,35.14,16.76,42.44,18.69,7.32,1.95,21.98,1.28,35.32.32,9.79-.54,44.14,0,47.91.95,3.76.98,25.96,14.25,25.96,14.25,0,0-17.61,46.69-22.8,58.71-5.17,12-13.81,23.39-22.95,26.4,0,0-38.69,12.12-50.81,13.4-1.77.19-3.53-.39-4.88-1.55l-5.11-4.36ZM400.85,239.9c-.38,1.04-2.2,5.92-3.24,6.46-9.39,4.9-104.7,5.14-104.7,5.14,0,0,1.67,8.89,3.29,10.73,1.65,1.83,99.8-1.63,112.08-4.89,9.89-19.59,35.61-96.15,39.27-101.27,4.75,1.73,45.96,14.57,45.96,14.57-6.55,33.91-27.86,136.11-27.86,136.11-14.54,1.5-105.31,1.84-138.63-.64,0,0-22.5-41.83-27.83-53.08-5.34-11.26-24.13-38.98-24.13-38.98,0,0,59.93-12.81,64.44-17.11,4.52-4.29,19.45-34.79,23.94-43.59,4.51-8.8,16.37-44.82,16.37-44.82l80.65-42.75s.26,6.05-1.04,28.3c0,0-14.42,25.96-14.52,26.13-2.23,4.02-5.02,7.53-7.5,11.35-2.2,3.39-4.83,6.6-8.46,8.63-9.59,5.35-19.06-.64-25.92-7.37,0,0-2.24,3.79-1.18,9.25,0,0,16.52,21.75,17.08,31.95,1.31,24.03-10.07,44.04-18.07,65.86Z"/>
    <path class="cls-2" d="M422.29,134.9s-12.98-5.35-8.72-21.46c4.26-16.11,40.83-41.86,40.83-41.86l-16.82,46.39-15.29,16.93Z"/>
    <path class="cls-2" d="M283.28,107.35l18.87-5.73c.69-.21,1.42,0,1.92.53l14.18,17.22c1.46,1.57-.11,4.14-2.06,3.38,0,0-13.07-5.31-18.14-7.33-5.07-2.02-14.91-4.15-14.91-4.15-1.77-.68-1.68-3.37.13-3.92Z"/>
    <circle class="cls-2" cx="454.41" cy="175.28" r="5.14"/>
    <circle class="cls-2" cx="476.48" cy="182.27" r="5.14"/>
    <circle class="cls-2" cx="325.64" cy="275.08" r="5.14"/>
    <circle class="cls-2" cx="337.07" cy="295.52" r="5.14"/>
  </g>
  <path class="cls-2" d="M223.76,381.11l21.66-7.18s4.72-.49,3.07-5.22c-1.66-4.73-10.68-15.27-16.53-18.69-8.63-5.06-26.66-7.7-36.58-7.34-11.46.41-27.15,3.31-35.17,8.06-8.03,4.72-17.7,15.08-20.98,22.74-3.55,8.26-7.09,22.09-4.96,39.15,2.13,17.04,12.78,29.38,19.1,34.18,6.92,5.31,21.54,11.07,41.3,11.38,18.89.29,36.72-3.6,50.52-13.49l6.61-4.73.24-38.56s.71-7.35-5.19-7.35h-43.67s-6.57-.66-6.61,4.02c-.02,3.09,0,13.24,0,13.24,0,0-.5,4.5,4.61,4.63,3.89.08,14.28,0,14.28,0,0,0,3.78-.85,3.78,3.89v7.1s-2.12,6.4-12.75,6.62c-10.62.24-22.19-.7-28.09-5.91-5.9-5.2-9.94-16.9-9.91-25.31.02-7.12,1.12-18.38,7.79-26.27,4.79-5.67,12.26-7.8,17.47-8.06,8.08-.38,18.17,3.07,20.77,7.34,2.6,4.25,2.83,5.68,5.2,6.15,2.36.48,4.07-.38,4.07-.38h0Z"/>
  <path class="cls-2" d="M106.87,456.72h-15.72s-6.03.84-6.03-7.93v-50.92c0-6.91,5.47-7.56,5.47-7.56h16.35c6.51,0,7.06,6.83,7.06,6.83v51.38c0,8.76-7.14,8.2-7.14,8.2Z"/>
  <path class="cls-2" d="M353.48,344.17s7.53.11,7.53,11.93-7.03,12.03-7.03,12.03h-42.49s-5.75,1.54-5.75,9.26,5.7,8.99,5.7,8.99h37.4s7.38.99,7.38,12.2-6.82,10.68-6.82,10.68h-37.51s-6.36,2.1-6.36,11.2,6.51,10.63,6.51,10.63h42.29s7.27.47,7.27,13.32-7.27,12.34-7.27,12.34h-74.71s-7.56.31-7.56-7.64v-96.13s-.28-8.88,7.31-8.88c7.57,0,74.09.08,74.09.08h0Z"/>
  <path class="cls-2" d="M420.16,345.82h-40.17s-4.2-.46-4.2,4.22v104.6s.35,3.49,3.27,3.49h21.9s3.73.09,3.73-3.04v-45.65s0-4.94,4.95-4.94,4.95,4.83,4.95,4.83l11.99,44.7s.48,3.61,3.61,3.61h20.27s2.67.48,4.19-3.5c1.52-3.96,12.35-46.81,12.35-46.81,0,0,.58-5.31,5.3-5.31s4.48,5.31,4.48,5.31v46.69s.36,3.97,3.5,3.97h22.01s3.49-.35,3.49-4.68v-103.41s0-4.44-3.73-4.44h-40.29s-2.44.23-3.84,4.79c-1.4,4.55-12.47,46.35-12.47,46.35,0,0-1.64,5.07-5.07,5.07s-5.07-5.31-5.07-5.31l-11.19-45.76s-.34-4.79-3.96-4.79h0Z"/>
  <g>
    <path class="cls-2" d="M89.97,504.74l-9.13-27.2h8.36l3.16,10.55c.68,2.29,1.31,4.62,1.88,6.98.57,2.37,1.13,4.77,1.66,7.2h-1.64c.51-2.43,1.03-4.83,1.57-7.2.54-2.37,1.13-4.69,1.79-6.98l3.01-10.55h8.25l-8.83,27.2h-10.08Z"/>
    <path class="cls-2" d="M111.58,504.74v-20.41h7.34v20.41h-7.34ZM115.23,482.25c-1,0-1.85-.33-2.56-.99-.71-.66-1.06-1.45-1.06-2.37s.35-1.73,1.06-2.38c.71-.65,1.56-.98,2.56-.98s1.85.33,2.56.98c.71.65,1.06,1.45,1.06,2.38s-.35,1.72-1.06,2.37c-.71.66-1.56.99-2.56.99Z"/>
    <path class="cls-2" d="M129.98,477.54v27.2h-7.34v-27.2h7.34Z"/>
    <path class="cls-2" d="M141.04,493.27v11.46h-7.34v-20.41h6.88l.15,5.22h-.22c.46-1.54,1.21-2.84,2.25-3.9s2.5-1.58,4.37-1.58c1.45,0,2.7.33,3.77.99s1.89,1.56,2.47,2.72c.58,1.16.88,2.48.88,3.96v13h-7.34v-11.46c0-1.01-.26-1.8-.77-2.38-.51-.58-1.23-.87-2.15-.87-.6,0-1.12.13-1.56.39s-.79.63-1.03,1.11c-.24.48-.37,1.06-.37,1.74Z"/>
    <path class="cls-2" d="M157.98,504.74v-20.41h7.34v20.41h-7.34ZM161.63,482.25c-1,0-1.85-.33-2.56-.99-.71-.66-1.06-1.45-1.06-2.37s.35-1.73,1.06-2.38c.71-.65,1.56-.98,2.56-.98s1.85.33,2.56.98c.71.65,1.06,1.45,1.06,2.38s-.35,1.72-1.06,2.37c-.71.66-1.56.99-2.56.99Z"/>
    <path class="cls-2" d="M176.16,504.99c-1.44,0-2.69-.33-3.76-.99s-1.9-1.56-2.48-2.72c-.58-1.16-.88-2.48-.88-3.96v-13h7.34v11.46c0,1.01.26,1.8.77,2.38.51.58,1.23.87,2.15.87.61,0,1.13-.13,1.57-.39.44-.26.78-.64,1.02-1.12s.36-1.06.36-1.73v-11.46h7.34v20.41h-6.88l-.15-5.22h.22c-.46,1.55-1.21,2.84-2.25,3.9s-2.5,1.58-4.37,1.58Z"/>
    <path class="cls-2" d="M202.42,505.1c-1.85,0-3.48-.26-4.9-.79s-2.57-1.27-3.45-2.24c-.88-.97-1.44-2.12-1.67-3.46l6.79-.99c.24.8.64,1.42,1.19,1.85.55.43,1.34.65,2.37.65.72,0,1.28-.11,1.68-.33.4-.22.6-.54.6-.95,0-.39-.19-.7-.57-.93-.38-.23-.97-.42-1.77-.57l-3.61-.66c-2.07-.38-3.62-1.07-4.65-2.07s-1.55-2.31-1.55-3.92c0-1.42.38-2.63,1.14-3.61.76-.99,1.84-1.74,3.25-2.25,1.41-.52,3.08-.78,5.03-.78,1.8,0,3.38.23,4.73.7,1.35.47,2.44,1.14,3.26,2.02.82.88,1.34,1.93,1.54,3.18l-6.46.93c-.16-.67-.5-1.16-1.04-1.47-.54-.31-1.16-.47-1.88-.47-.63,0-1.17.11-1.61.34s-.66.55-.66.98c0,.3.13.59.39.86s.78.47,1.54.6l4.16.73c2.08.37,3.64,1,4.66,1.9s1.54,2.1,1.54,3.61-.44,2.72-1.31,3.79-2.06,1.89-3.57,2.46-3.24.87-5.18.87Z"/>
    <path class="cls-2" d="M228.67,491.16v5.51h-12.74v-5.51h12.74Z"/>
    <path class="cls-2" d="M232.92,504.74v-27.2h7.37v21.25h10.99v5.95h-18.36Z"/>
    <path class="cls-2" d="M254.17,504.74v-20.41h7.34v20.41h-7.34ZM257.82,482.25c-1,0-1.85-.33-2.56-.99-.71-.66-1.06-1.45-1.06-2.37s.35-1.73,1.06-2.38c.71-.65,1.56-.98,2.56-.98s1.85.33,2.56.98c.71.65,1.06,1.45,1.06,2.38s-.35,1.72-1.06,2.37c-.71.66-1.56.99-2.56.99Z"/>
    <path class="cls-2" d="M277.17,484.33v5.33h-13.43v-5.33h13.43ZM266.33,479.48h7.34v18.71c0,.43.11.75.33.96.22.21.57.32,1.06.32.22,0,.54-.03.96-.08s.7-.11.83-.16l.88,5.24c-.84.23-1.63.39-2.37.46-.74.08-1.44.12-2.1.12-2.29,0-4.01-.52-5.17-1.57-1.16-1.05-1.74-2.58-1.74-4.62v-19.38Z"/>
    <path class="cls-2" d="M287.68,493.27v11.46h-7.34v-27.2h7.16v12.01h-.35c.46-1.54,1.21-2.84,2.25-3.9s2.5-1.58,4.37-1.58c1.45,0,2.71.33,3.77.99s1.89,1.56,2.47,2.72.88,2.48.88,3.96v13h-7.34v-11.46c0-1.01-.26-1.8-.77-2.38-.51-.58-1.23-.87-2.15-.87-.6,0-1.12.13-1.56.39s-.79.63-1.03,1.11c-.24.48-.37,1.06-.37,1.74Z"/>
    <path class="cls-2" d="M311.74,504.99c-1.44,0-2.69-.33-3.76-.99-1.07-.66-1.9-1.56-2.48-2.72-.58-1.16-.88-2.48-.88-3.96v-13h7.34v11.46c0,1.01.26,1.8.77,2.38.51.58,1.23.87,2.15.87.61,0,1.13-.13,1.57-.39.44-.26.78-.64,1.02-1.12.24-.49.37-1.06.37-1.73v-11.46h7.34v20.41h-6.88l-.15-5.22h.22c-.46,1.55-1.21,2.84-2.25,3.9-1.04,1.05-2.5,1.58-4.37,1.58Z"/>
    <path class="cls-2" d="M334.59,505.07c-1.3,0-2.46-.22-3.46-.65s-1.79-1.09-2.35-1.96c-.56-.88-.84-1.99-.84-3.34,0-1.12.19-2.07.57-2.87s.91-1.44,1.59-1.94,1.48-.89,2.38-1.17,1.89-.45,2.95-.52c1.14-.08,2.06-.19,2.75-.31.69-.12,1.19-.3,1.5-.54.31-.24.47-.55.47-.94v-.07c0-.35-.09-.65-.28-.89s-.45-.43-.79-.56-.75-.19-1.22-.19-.88.07-1.26.2-.69.33-.94.6c-.25.27-.42.61-.5,1.02l-6.61-.66c.19-1.14.67-2.18,1.42-3.12.75-.94,1.8-1.69,3.13-2.25s2.95-.84,4.86-.84c1.45,0,2.76.17,3.93.51,1.17.34,2.18.82,3.01,1.42.83.61,1.47,1.32,1.92,2.13.44.81.67,1.68.67,2.62v13.98h-6.86v-2.88h-.15c-.41.77-.91,1.38-1.49,1.85s-1.23.81-1.96,1.03-1.54.33-2.43.33ZM336.96,500.43c.56,0,1.09-.12,1.58-.35.49-.23.89-.56,1.2-1,.31-.43.47-.96.47-1.58v-1.68c-.2.07-.4.15-.62.22-.22.07-.45.14-.7.2-.25.06-.5.12-.77.16s-.54.1-.83.15c-.57.09-1.04.23-1.4.43-.36.2-.62.44-.79.73-.17.29-.25.61-.25.96,0,.38.09.7.27.96s.43.46.75.59c.32.13.68.2,1.1.2Z"/>
    <path class="cls-2" d="M358.54,493.27v11.46h-7.34v-20.41h6.88l.15,5.22h-.22c.46-1.54,1.21-2.84,2.25-3.9,1.04-1.05,2.5-1.58,4.37-1.58,1.45,0,2.7.33,3.77.99,1.06.66,1.89,1.56,2.47,2.72s.88,2.48.88,3.96v13h-7.34v-11.46c0-1.01-.26-1.8-.77-2.38-.51-.58-1.23-.87-2.15-.87-.6,0-1.12.13-1.56.39s-.79.63-1.03,1.11-.37,1.06-.37,1.74Z"/>
    <path class="cls-2" d="M375.48,504.74v-20.41h7.34v20.41h-7.34ZM379.13,482.25c-1,0-1.85-.33-2.56-.99-.71-.66-1.06-1.45-1.06-2.37s.35-1.73,1.06-2.38c.71-.65,1.56-.98,2.56-.98s1.85.33,2.55.98c.71.65,1.06,1.45,1.06,2.38s-.35,1.72-1.06,2.37c-.71.66-1.56.99-2.55.99Z"/>
    <path class="cls-2" d="M392.23,505.07c-1.3,0-2.46-.22-3.46-.65s-1.79-1.09-2.35-1.96c-.56-.88-.84-1.99-.84-3.34,0-1.12.19-2.07.57-2.87s.91-1.44,1.59-1.94,1.48-.89,2.38-1.17,1.89-.45,2.95-.52c1.14-.08,2.06-.19,2.75-.31.69-.12,1.19-.3,1.5-.54.31-.24.47-.55.47-.94v-.07c0-.35-.09-.65-.28-.89s-.45-.43-.79-.56-.75-.19-1.22-.19-.88.07-1.26.2-.69.33-.94.6c-.25.27-.42.61-.5,1.02l-6.61-.66c.19-1.14.67-2.18,1.42-3.12.75-.94,1.8-1.69,3.13-2.25s2.95-.84,4.86-.84c1.45,0,2.76.17,3.93.51,1.17.34,2.18.82,3.01,1.42.83.61,1.47,1.32,1.92,2.13.44.81.67,1.68.67,2.62v13.98h-6.86v-2.88h-.15c-.41.77-.91,1.38-1.49,1.85s-1.23.81-1.96,1.03-1.54.33-2.43.33ZM394.61,500.43c.56,0,1.09-.12,1.58-.35.49-.23.89-.56,1.2-1,.31-.43.47-.96.47-1.58v-1.68c-.2.07-.4.15-.62.22-.22.07-.45.14-.7.2-.25.06-.5.12-.77.16s-.54.1-.83.15c-.57.09-1.04.23-1.4.43-.36.2-.62.44-.79.73-.17.29-.25.61-.25.96,0,.38.09.7.27.96s.43.46.75.59c.32.13.68.2,1.1.2Z"/>
    <path class="cls-2" d="M416.22,504.74v-5.29l10.15-8.4c.67-.56,1.25-1.09,1.73-1.58.49-.49.86-1,1.12-1.52.26-.52.39-1.11.39-1.75,0-.69-.15-1.29-.45-1.78-.3-.49-.71-.87-1.22-1.14-.52-.27-1.12-.4-1.8-.4s-1.28.14-1.8.41c-.52.27-.92.67-1.21,1.2s-.43,1.17-.43,1.93h-7.01c0-1.91.43-3.55,1.29-4.93.86-1.38,2.07-2.44,3.64-3.19,1.57-.75,3.41-1.12,5.51-1.12s4.06.35,5.66,1.04c1.59.69,2.83,1.67,3.7,2.93.87,1.26,1.3,2.74,1.3,4.43,0,1.05-.22,2.08-.65,3.11-.43,1.03-1.21,2.17-2.33,3.42-1.12,1.25-2.72,2.74-4.8,4.45l-2.56,2.12v.18h10.62v5.88h-20.88Z"/>
    <path class="cls-2" d="M451.88,505.1c-2.52,0-4.67-.55-6.46-1.66-1.79-1.11-3.16-2.7-4.12-4.77-.96-2.07-1.43-4.58-1.43-7.51s.48-5.44,1.43-7.53c.96-2.09,2.33-3.68,4.12-4.79,1.79-1.11,3.94-1.66,6.46-1.66s4.68.56,6.47,1.67,3.17,2.71,4.12,4.79c.95,2.08,1.42,4.59,1.42,7.52s-.47,5.44-1.42,7.51c-.95,2.08-2.32,3.67-4.11,4.77-1.79,1.11-3.95,1.66-6.48,1.66ZM451.88,499.11c.94,0,1.73-.3,2.37-.91.64-.61,1.13-1.51,1.47-2.69.33-1.19.5-2.64.5-4.35s-.17-3.19-.5-4.38c-.33-1.19-.82-2.1-1.47-2.72-.65-.62-1.44-.93-2.37-.93s-1.71.31-2.36.93c-.65.62-1.14,1.53-1.48,2.72-.33,1.19-.5,2.65-.5,4.38s.16,3.17.49,4.35c.33,1.19.82,2.08,1.47,2.69.65.61,1.44.91,2.38.91Z"/>
    <path class="cls-2" d="M466.96,504.74v-5.29l10.15-8.4c.67-.56,1.25-1.09,1.73-1.58.49-.49.86-1,1.12-1.52.26-.52.39-1.11.39-1.75,0-.69-.15-1.29-.45-1.78-.3-.49-.71-.87-1.22-1.14-.52-.27-1.12-.4-1.8-.4s-1.28.14-1.8.41c-.52.27-.92.67-1.21,1.2s-.43,1.17-.43,1.93h-7.01c0-1.91.43-3.55,1.29-4.93.86-1.38,2.07-2.44,3.64-3.19,1.57-.75,3.41-1.12,5.51-1.12s4.06.35,5.66,1.04c1.59.69,2.83,1.67,3.7,2.93.87,1.26,1.3,2.74,1.3,4.43,0,1.05-.22,2.08-.65,3.11-.43,1.03-1.21,2.17-2.33,3.42-1.12,1.25-2.72,2.74-4.8,4.45l-2.56,2.12v.18h10.62v5.88h-20.88Z"/>
    <path class="cls-2" d="M501.31,505.1c-2.09,0-3.95-.37-5.57-1.1-1.62-.74-2.89-1.75-3.82-3.06-.92-1.3-1.4-2.8-1.42-4.49h7.19c0,.62.17,1.16.49,1.62.33.46.77.82,1.31,1.07.55.25,1.15.37,1.81.37.75,0,1.42-.16,1.98-.48.57-.32,1.01-.78,1.33-1.36.32-.58.48-1.27.48-2.06s-.16-1.5-.48-2.09c-.32-.59-.77-1.05-1.33-1.37-.57-.32-1.23-.48-1.98-.48s-1.51.19-2.16.57c-.65.38-1.13.89-1.45,1.55l-6.5-1.28,1.06-14.97h18.29v5.91h-12.23l-.51,5.99h.15c.43-.83,1.16-1.51,2.21-2.04,1.05-.54,2.26-.8,3.63-.8,1.21,0,2.32.21,3.35.64,1.03.43,1.92,1.03,2.68,1.82.76.79,1.35,1.72,1.77,2.79.42,1.08.63,2.26.63,3.55,0,1.9-.45,3.58-1.35,5.04s-2.17,2.6-3.81,3.43-3.56,1.24-5.76,1.24Z"/>
  </g>
  <path class="cls-1" d="M239.12,254.48l-15.08,2.5c-.83-2.36-1.85-4.61-3.05-6.75l11.8-9.7c1.54-1.27,1.77-3.55.5-5.1l-5.09-6.19c-1.27-1.54-3.55-1.77-5.1-.5l-11.81,9.71c-1.88-1.6-3.89-3.04-6.02-4.3l5.37-14.32c.7-1.87-.25-3.96-2.12-4.66l-7.5-2.82c-1.87-.7-3.96.25-4.66,2.12l-5.37,14.3c-2.41-.44-4.87-.68-7.37-.71l-2.5-15.08c-.33-1.97-2.19-3.31-4.16-2.98l-7.9,1.31c-1.97.33-3.31,2.19-2.98,4.16l2.5,15.08c-2.36.83-4.61,1.85-6.75,3.05l-9.7-11.8c-1.27-1.54-3.55-1.77-5.1-.5l-6.19,5.09c-1.54,1.27-1.77,3.55-.5,5.1l9.71,11.81c-1.6,1.88-3.04,3.89-4.3,6.02l-14.32-5.37c-1.87-.7-3.96.25-4.66,2.12l-2.82,7.5c-.7,1.87.25,3.96,2.12,4.66l14.3,5.37c-.44,2.41-.68,4.87-.71,7.37l-15.08,2.5c-1.97.33-3.31,2.19-2.98,4.16l1.31,7.9c.33,1.97,2.19,3.31,4.16,2.98l15.08-2.5c.83,2.36,1.85,4.61,3.05,6.75l-11.8,9.7c-1.54,1.27-1.77,3.55-.5,5.1l5.09,6.19c1.27,1.54,3.55,1.77,5.1.5l11.81-9.71c1.88,1.6,3.89,3.04,6.02,4.3l-5.37,14.32c-.7,1.87.25,3.96,2.12,4.66l7.5,2.82c1.87.7,3.96-.25,4.66-2.12l5.37-14.3c2.4.44,4.87.68,7.37.71l2.5,15.08c.33,1.97,2.19,3.31,4.16,2.98l7.9-1.31c1.97-.33,3.31-2.19,2.98-4.16l-2.5-15.08c2.36-.83,4.61-1.85,6.75-3.05l9.7,11.8c1.27,1.54,3.55,1.77,5.1.5l6.19-5.09c1.54-1.27,1.77-3.55.5-5.1l-9.71-11.81c1.6-1.88,3.04-3.89,4.3-6.02l14.32,5.37c1.87.7,3.96-.25,4.66-2.12l2.82-7.5c.7-1.87-.25-3.96-2.12-4.66l-14.3-5.37c.44-2.41.68-4.87.71-7.37l15.08-2.5c1.97-.33,3.31-2.19,2.98-4.16l-1.31-7.9c-.33-1.97-2.19-3.31-4.16-2.98ZM178.27,243.89c15.14-2.51,29.44,7.72,31.95,22.86,2.51,15.14-7.72,29.44-22.86,31.95-15.14,2.51-29.44-7.72-31.95-22.86-2.51-15.14,7.72-29.44,22.86-31.95Z"/>
  <path class="cls-1" d="M132.03,318.7l-8.86,2.33c-.63-1.36-1.36-2.65-2.19-3.85l6.5-6.44c.85-.84.86-2.22.01-3.07l-3.38-3.41c-.84-.85-2.22-.86-3.07-.01l-6.51,6.45c-1.21-.85-2.49-1.6-3.83-2.23l2.41-8.84c.32-1.16-.37-2.35-1.52-2.66l-4.63-1.26c-1.16-.32-2.35.37-2.66,1.52l-2.41,8.83c-1.46-.13-2.94-.13-4.44-.01l-2.33-8.86c-.31-1.16-1.49-1.85-2.65-1.55l-4.64,1.22c-1.16.31-1.85,1.49-1.55,2.65l2.33,8.86c-1.36.63-2.65,1.36-3.85,2.19l-6.44-6.5c-.84-.85-2.22-.86-3.07-.01l-3.41,3.38c-.85.84-.86,2.22-.01,3.07l6.45,6.51c-.85,1.21-1.6,2.49-2.23,3.83l-8.84-2.41c-1.16-.32-2.35.37-2.66,1.52l-1.26,4.63c-.32,1.16.37,2.35,1.52,2.66l8.83,2.41c-.13,1.46-.13,2.94-.01,4.44l-8.86,2.33c-1.16.31-1.85,1.49-1.55,2.65l1.22,4.64c.31,1.16,1.49,1.85,2.65,1.55l8.86-2.33c.63,1.36,1.36,2.65,2.19,3.85l-6.5,6.44c-.85.84-.86,2.22-.01,3.07l3.38,3.41c.84.85,2.22.86,3.07.01l6.51-6.45c1.21.85,2.49,1.6,3.83,2.23l-2.41,8.84c-.31,1.16.37,2.35,1.52,2.66l4.63,1.26c1.16.32,2.35-.37,2.66-1.52l2.41-8.83c1.46.13,2.94.13,4.44.01l2.33,8.86c.31,1.16,1.49,1.85,2.65,1.55l4.64-1.22c1.16-.31,1.85-1.49,1.55-2.65l-2.33-8.86c1.36-.63,2.65-1.36,3.86-2.19l6.44,6.5c.84.85,2.22.86,3.07.01l3.41-3.38c.85-.84.86-2.22.01-3.07l-6.45-6.51c.85-1.21,1.6-2.49,2.23-3.83l8.84,2.41c1.16.32,2.35-.37,2.66-1.52l1.26-4.63c.32-1.16-.37-2.35-1.52-2.66l-8.83-2.41c.13-1.46.13-2.94.01-4.44l8.86-2.33c1.16-.31,1.85-1.49,1.55-2.65l-1.22-4.64c-.31-1.16-1.49-1.85-2.65-1.55ZM95.14,315.77c8.89-2.34,17.99,2.97,20.34,11.86s-2.97,17.99-11.86,20.34c-8.89,2.34-17.99-2.97-20.34-11.86s2.97-17.99,11.86-20.34Z"/>
</svg>